<svg xmlns="http://www.w3.org/2000/svg" width="30.801" height="27" viewBox="0 0 30.801 27">
  <path id="Icon_map-food" data-name="Icon map-food" d="M31.453,10.031,28.928,29.825H20.4L17.884,9.932H28.3l2.058-7.108,1.167.352-1.974,6.84,1.906.015ZM16.679,21.483s.319-2.567-4.1-2.567H5.532c-4.416,0-4.1,2.567-4.1,2.567h15.25ZM1.428,27.258s-.312,2.567,4.1,2.567h7.044c4.422,0,4.1-2.567,4.1-2.567H1.428Zm14.589-1.283a1.476,1.476,0,0,0,1.308-1.6,1.474,1.474,0,0,0-1.308-1.6H2.029a1.477,1.477,0,0,0-1.309,1.6,1.479,1.479,0,0,0,1.309,1.6H16.017Z" transform="translate(-0.72 -2.825)" fill="#feb59c"/>
</svg>
