<svg xmlns="http://www.w3.org/2000/svg" width="14.058" height="27" viewBox="0 0 14.058 27">
  <path id="Icon_metro-dollar2" data-name="Icon metro-dollar2" d="M24.015,20.058a5.732,5.732,0,0,1-1.5,3.97,6.471,6.471,0,0,1-3.895,2.057v2.637a.464.464,0,0,1-.482.482H16.105a.489.489,0,0,1-.482-.482V26.085a9.5,9.5,0,0,1-1.921-.467,9.253,9.253,0,0,1-2.644-1.394,8.587,8.587,0,0,1-.7-.565q-.188-.181-.264-.271a.458.458,0,0,1-.03-.618l1.552-2.034a.469.469,0,0,1,.347-.181.373.373,0,0,1,.362.136l.03.03A7.868,7.868,0,0,0,16.015,22.6a5.263,5.263,0,0,0,1.115.121,3.653,3.653,0,0,0,2.147-.648,2.111,2.111,0,0,0,.927-1.838,1.528,1.528,0,0,0-.226-.8,2.823,2.823,0,0,0-.5-.633,4.135,4.135,0,0,0-.881-.565q-.6-.309-.994-.482t-1.205-.49q-.588-.241-.927-.377t-.927-.4q-.588-.264-.942-.467t-.851-.535a5.306,5.306,0,0,1-.806-.64,9.39,9.39,0,0,1-.655-.738,3.686,3.686,0,0,1-.535-.874,6.043,6.043,0,0,1-.316-1,5.23,5.23,0,0,1-.128-1.175,5.152,5.152,0,0,1,1.477-3.646A6.894,6.894,0,0,1,15.623,5.4V2.686a.489.489,0,0,1,.482-.482h2.034a.464.464,0,0,1,.482.482V5.337a8.381,8.381,0,0,1,1.665.347,9.653,9.653,0,0,1,1.311.5,7.26,7.26,0,0,1,.957.565q.452.316.588.437t.226.211a.436.436,0,0,1,.075.573l-1.22,2.2a.41.41,0,0,1-.347.241.48.48,0,0,1-.407-.105q-.045-.045-.218-.181t-.588-.4a7.775,7.775,0,0,0-.881-.482,6.729,6.729,0,0,0-1.122-.392,5.027,5.027,0,0,0-1.288-.173,3.916,3.916,0,0,0-2.335.648,2.026,2.026,0,0,0-.776,2.4,1.7,1.7,0,0,0,.444.625,6.639,6.639,0,0,0,.6.5,5.307,5.307,0,0,0,.844.467q.565.264.912.407t1.055.414q.8.3,1.22.475t1.145.527a9.1,9.1,0,0,1,1.138.64,9.62,9.62,0,0,1,.934.753,3.9,3.9,0,0,1,.8.957,5.46,5.46,0,0,1,.475,1.153,4.971,4.971,0,0,1,.2,1.416Z" transform="translate(-9.957 -2.203)" fill="#feb59c"/>
</svg>
