<svg xmlns="http://www.w3.org/2000/svg" width="70.138" height="63.324" viewBox="0 0 70.138 63.324">
  <g id="Group_26" data-name="Group 26" transform="translate(-37.5 -18.5)">
    <path id="Path_1" data-name="Path 1" d="M9.814,4.5h54.51a6.814,6.814,0,0,1,6.814,6.814V31.755A34.069,34.069,0,1,1,3,31.755V11.314A6.814,6.814,0,0,1,9.814,4.5Z" transform="translate(35.5 15)" fill="none" stroke="#fff" stroke-linecap="round" stroke-linejoin="round" stroke-width="2"/>
    <path id="Icon_material-attach-money" data-name="Icon material-attach-money" d="M21.618,22c-5.028-1.307-6.645-2.658-6.645-4.762,0-2.414,2.237-4.1,5.98-4.1,3.943,0,5.4,1.883,5.537,4.651h4.9a8.829,8.829,0,0,0-7.11-8.439V4.5H17.631V9.284c-4.3.93-7.752,3.721-7.752,8,0,5.117,4.231,7.664,10.41,9.148,5.537,1.329,6.645,3.278,6.645,5.338,0,1.528-1.085,3.965-5.98,3.965-4.563,0-6.357-2.038-6.6-4.651H9.48c.266,4.851,3.9,7.575,8.151,8.483v4.806h6.645V39.607c4.319-.82,7.752-3.322,7.752-7.863C32.028,25.453,26.646,23.3,21.618,22Z" transform="translate(52.537 25.16)" fill="#fff"/>
  </g>
</svg>
