<svg xmlns="http://www.w3.org/2000/svg" width="27" height="27" viewBox="0 0 27 27">
  <path id="Icon_awesome-spinner" data-name="Icon awesome-spinner" d="M16.031,2.531A2.531,2.531,0,1,1,13.5,0,2.531,2.531,0,0,1,16.031,2.531ZM13.5,21.938a2.531,2.531,0,1,0,2.531,2.531A2.531,2.531,0,0,0,13.5,21.938ZM24.469,10.969A2.531,2.531,0,1,0,27,13.5,2.531,2.531,0,0,0,24.469,10.969ZM5.063,13.5a2.531,2.531,0,1,0-2.531,2.531A2.531,2.531,0,0,0,5.063,13.5Zm.681,5.225a2.531,2.531,0,1,0,2.531,2.531A2.531,2.531,0,0,0,5.744,18.725Zm15.512,0a2.531,2.531,0,1,0,2.531,2.531A2.531,2.531,0,0,0,21.256,18.725ZM5.744,3.213A2.531,2.531,0,1,0,8.275,5.744,2.531,2.531,0,0,0,5.744,3.213Z" fill="#feb59c"/>
</svg>
