<svg xmlns="http://www.w3.org/2000/svg" width="35.644" height="27" viewBox="0 0 35.644 27">
  <path id="Icon_map-clothing-store" data-name="Icon map-clothing-store" d="M37.424,11.046a.853.853,0,0,1-.151.683L32.993,18.1a.952.952,0,0,1-.771.381,2.215,2.215,0,0,1-.388-.04L28.4,17.6V32.686a.763.763,0,0,1-.794.794H10.932a.763.763,0,0,1-.794-.794V17.6l-3.081.85a.726.726,0,0,1-.866-.341L1.943,11.753a.8.8,0,0,1-.111-.667.774.774,0,0,1,.437-.508l8.664-4.1H14.9a.759.759,0,0,1,.794.794c0,1.636,2.3,2.8,3.931,2.8s4.01-1.151,4.01-2.8a.763.763,0,0,1,.794-.794H28.4L36.979,10.5a.854.854,0,0,1,.445.548Z" transform="translate(-1.802 -6.48)" fill="#feb59c"/>
</svg>
