<svg xmlns="http://www.w3.org/2000/svg" width="19.568" height="27" viewBox="0 0 19.568 27">
  <path id="Icon_map-train-station" data-name="Icon map-train-station" d="M20.649,21.452l-.064-.122.032-.046.032-.046a7.523,7.523,0,0,0,1.611-.9,2.665,2.665,0,0,0,.969-1.582l.121-.556V3.822a2.2,2.2,0,0,0-.308-1.073,4.117,4.117,0,0,0-.769-1,4.415,4.415,0,0,0-1.027-.738A2.4,2.4,0,0,0,20.155.72H9.868A2.441,2.441,0,0,0,8.806.994,4.4,4.4,0,0,0,7.762,1.7a3.91,3.91,0,0,0-.783.965A2.148,2.148,0,0,0,6.67,3.732V18.32a1.883,1.883,0,0,0,.184.768,3.777,3.777,0,0,0,.461.75,4.748,4.748,0,0,0,.6.648,4.079,4.079,0,0,0,.63.475c.1.042.281.106.539.188s.371.141.351.181L5.226,27.72H7.682l3.074-4.455h8.48l3.07,4.455h2.488Zm-8.081-19.5a.49.49,0,0,1,.154-.324.42.42,0,0,1,.307-.166h3.933a.638.638,0,0,1,.247.12c.121.082.182.164.182.246V3.328a.348.348,0,0,1-.153.276.468.468,0,0,1-.276.127H13l-.125-.1a1.121,1.121,0,0,1-.2-.17.308.308,0,0,1-.108-.226V1.947ZM8.6,6.156a1.418,1.418,0,0,1,.139-.6A2.359,2.359,0,0,1,9.1,5.018a1.775,1.775,0,0,1,.506-.4,1.273,1.273,0,0,1,.6-.154h9.554a1.418,1.418,0,0,1,.55.121,1.89,1.89,0,0,1,.508.339,1.928,1.928,0,0,1,.369.463,1.038,1.038,0,0,1,.136.52V9.167a1.039,1.039,0,0,1-.152.535,1.659,1.659,0,0,1-.4.466,2.3,2.3,0,0,1-.523.318,1.267,1.267,0,0,1-.551.124H10.266l-.155-.028a.929.929,0,0,1-.185-.064,1.558,1.558,0,0,1-.92-.553,1.51,1.51,0,0,1-.4-1.012v-2.8Zm2.844,12.688a1.584,1.584,0,0,1-1.183.491,1.491,1.491,0,0,1-1.155-.491,1.725,1.725,0,0,1-.444-1.2,1.55,1.55,0,0,1,.462-1.119,1.517,1.517,0,0,1,1.137-.479,1.689,1.689,0,0,1,1.183.444,1.548,1.548,0,0,1,.476,1.186A1.619,1.619,0,0,1,11.449,18.844Zm7.034,0a1.665,1.665,0,0,1-.478-1.2,1.467,1.467,0,0,1,.507-1.154,1.76,1.76,0,0,1,1.185-.444,1.506,1.506,0,0,1,1.151.479,1.588,1.588,0,0,1,.447,1.119,1.692,1.692,0,0,1-.462,1.2,1.536,1.536,0,0,1-1.169.491A1.577,1.577,0,0,1,18.483,18.844Z" transform="translate(-5.226 -0.72)" fill="#feb59c"/>
</svg>
